<svg width="88" height="45" viewBox="0 0 88 45" fill="none" xmlns="http://www.w3.org/2000/svg">
<path d="M3 19.0918C1.34315 19.0918 0 20.4349 0 22.0918C0 23.7487 1.34315 25.0918 3 25.0918L3 22.0918L3 19.0918ZM87.1213 24.2131C88.2929 23.0415 88.2929 21.142 87.1213 19.9705L68.0294 0.878593C66.8579 -0.292979 64.9584 -0.292979 63.7868 0.878593C62.6152 2.05017 62.6152 3.94966 63.7868 5.12123L80.7574 22.0918L63.7868 39.0624C62.6152 40.2339 62.6152 42.1334 63.7868 43.305C64.9584 44.4766 66.8579 44.4766 68.0294 43.305L87.1213 24.2131ZM3 22.0918L3 25.0918L85 25.0918V22.0918V19.0918L3 19.0918L3 22.0918Z" fill="black"/>
</svg>
