<svg width="21" height="18" viewBox="0 0 21 18" fill="none" xmlns="http://www.w3.org/2000/svg">
<g clip-path="url(#clip0_234_74)">
<path d="M4.74993 1.49558C7.07729 3.19101 9.58063 6.62864 10.4997 8.47347C11.4189 6.62877 13.9221 3.19098 16.2495 1.49558C17.9288 0.272226 20.6497 -0.674336 20.6497 2.33768C20.6497 2.93921 20.2943 7.39092 20.0858 8.11364C19.3612 10.6263 16.7208 11.2672 14.3721 10.8793C18.4776 11.5573 19.522 13.8032 17.2665 16.049C12.9828 20.3143 11.1096 14.9788 10.6294 13.6117C10.5414 13.3611 10.5003 13.2438 10.4997 13.3435C10.4991 13.2438 10.4579 13.3611 10.3699 13.6117C9.88991 14.9788 8.01674 20.3145 3.73285 16.049C1.47731 13.8032 2.52167 11.5572 6.62724 10.8793C4.27846 11.2672 1.63799 10.6263 0.913494 8.11364C0.705027 7.39085 0.349609 2.93915 0.349609 2.33768C0.349609 -0.674336 3.07058 0.272226 4.74981 1.49558H4.74993Z" fill="black"/>
</g>
<defs>
<clipPath id="clip0_234_74">
<rect width="21" height="18" fill="white"/>
</clipPath>
</defs>
</svg>
