<svg width="21" height="20" viewBox="0 0 21 20" fill="none" xmlns="http://www.w3.org/2000/svg">
<path fill-rule="evenodd" clip-rule="evenodd" d="M14.1051 1H6.24205C3.34694 1 1 3.29511 1 6.12628V13.8157C1 16.6468 3.34694 18.942 6.24205 18.942H14.1051C17.0002 18.942 19.3472 16.6468 19.3472 13.8157V6.12628C19.3472 3.29511 17.0002 1 14.1051 1Z" stroke="black" stroke-width="2" stroke-linecap="round" stroke-linejoin="round"/>
<path fill-rule="evenodd" clip-rule="evenodd" d="M10.1737 13.8154C8.00234 13.8154 6.24219 12.0941 6.24219 9.97069C6.24219 7.84725 8.00234 6.12598 10.1737 6.12598C12.3451 6.12598 14.1053 7.84725 14.1053 9.97069C14.1053 10.9903 13.691 11.9683 12.9537 12.6893C12.2164 13.4103 11.2164 13.8154 10.1737 13.8154Z" stroke="black" stroke-width="2" stroke-linecap="round" stroke-linejoin="round"/>
<path d="M15.417 4.20378C15.0551 4.20378 14.7617 4.49067 14.7617 4.84457C14.7617 5.19846 15.0551 5.48535 15.417 5.48535C15.7789 5.48535 16.0722 5.19846 16.0722 4.84457C16.0722 4.49067 15.7789 4.20378 15.417 4.20378Z" stroke="black" stroke-width="1.4" stroke-linecap="round"/>
</svg>
