<svg width="23" height="16" viewBox="0 0 23 16" fill="none" xmlns="http://www.w3.org/2000/svg">
<path fill-rule="evenodd" clip-rule="evenodd" d="M9.16032 10.7496V4.45668C11.4448 5.50789 13.2141 6.52338 15.3066 7.61821C13.5807 8.55423 11.4448 9.60447 9.16032 10.7496ZM21.8916 1.3269C21.4975 0.819191 20.8259 0.423979 20.1109 0.293137C18.0092 -0.0971571 4.89753 -0.0982672 2.79697 0.293137C2.22357 0.398255 1.71298 0.652339 1.27436 1.04711C-0.573764 2.72457 0.0053507 11.7203 0.450821 13.1774C0.638145 13.8082 0.880308 14.263 1.18528 14.5616C1.57821 14.9564 2.11619 15.2282 2.73414 15.3501C4.46461 15.7001 13.3797 15.8958 20.0743 15.4027C20.6911 15.2975 21.2371 15.017 21.6677 14.6054C23.3765 12.9347 23.26 3.4338 21.8916 1.3269Z" fill="black"/>
</svg>
